<svg xmlns="http://www.w3.org/2000/svg" xmlns:xlink="http://www.w3.org/1999/xlink" viewBox="0 0 292.88 312.12"><defs><linearGradient id="8397a74d-34c8-45c1-a355-819432c8c33a" x1="113.64" y1="50.23" x2="24.63" y2="49.86" gradientUnits="userSpaceOnUse"><stop offset="0" stop-color="#ea1ef6"/><stop offset="0.48" stop-color="#df1cc0"/><stop offset="1" stop-color="#d41989"/></linearGradient><linearGradient id="c83f9cd8-7a8a-4c6a-b8eb-fe2f1d6542eb" x1="288.41" y1="68.83" x2="137.11" y2="69.14" gradientUnits="userSpaceOnUse"><stop offset="0" stop-color="#ff8402"/><stop offset="1" stop-color="#eb293e"/></linearGradient><linearGradient id="1f673a6c-7a4e-479a-9061-f32e3f0bd5c7" x1="288.52" y1="122.6" x2="137.23" y2="122.91" gradientUnits="userSpaceOnUse"><stop offset="0" stop-color="#e3d0d3"/><stop offset="0.27" stop-color="#dababe"/><stop offset="1" stop-color="#c38389"/></linearGradient><linearGradient id="53500c96-645d-4c46-82a7-0a228ed0ffbe" x1="288.53" y1="125.27" x2="137.23" y2="125.59" xlink:href="#1f673a6c-7a4e-479a-9061-f32e3f0bd5c7"/><linearGradient id="59ff3153-aadb-4941-b889-e1b780934200" x1="288.55" y1="132.69" x2="137.25" y2="133" xlink:href="#1f673a6c-7a4e-479a-9061-f32e3f0bd5c7"/><linearGradient id="923a3f67-682c-49fe-9b63-6bcd53850d6a" x1="288.54" y1="129.31" x2="137.24" y2="129.62" xlink:href="#1f673a6c-7a4e-479a-9061-f32e3f0bd5c7"/><linearGradient id="d27049d2-23a0-42ce-9041-98a0ba354c8e" x1="288.54" y1="128.59" x2="137.24" y2="128.91" xlink:href="#1f673a6c-7a4e-479a-9061-f32e3f0bd5c7"/><linearGradient id="17483e5e-49a5-422b-bcbe-9ba6a4caefe8" x1="288.53" y1="125.16" x2="137.23" y2="125.48" xlink:href="#1f673a6c-7a4e-479a-9061-f32e3f0bd5c7"/><linearGradient id="4e869210-9539-415d-8c56-680bb52ff79c" x1="288.53" y1="123.67" x2="137.23" y2="123.98" xlink:href="#1f673a6c-7a4e-479a-9061-f32e3f0bd5c7"/><linearGradient id="3b6859d6-9032-4c7b-be74-09208257d582" x1="288.55" y1="132.68" x2="137.25" y2="132.99" xlink:href="#1f673a6c-7a4e-479a-9061-f32e3f0bd5c7"/><linearGradient id="6dff31e1-e510-4503-a0e6-9923f851a66e" x1="288.52" y1="122.26" x2="137.23" y2="122.58" xlink:href="#1f673a6c-7a4e-479a-9061-f32e3f0bd5c7"/><linearGradient id="5d59821c-44e6-4843-89e1-a43a05c2e46d" x1="103.38" y1="27.03" x2="101.99" y2="141.07" gradientUnits="userSpaceOnUse"><stop offset="0" stop-color="#ff8402"/><stop offset="0.38" stop-color="#f7601a"/><stop offset="1" stop-color="#eb293e"/></linearGradient><linearGradient id="df4d9553-ada8-4e55-8c11-4fb769d44bf1" x1="288.3" y1="16.53" x2="153.37" y2="16.81" xlink:href="#1f673a6c-7a4e-479a-9061-f32e3f0bd5c7"/><linearGradient id="558a6b42-e8bc-4bb9-88fb-f9a6eb6991e9" x1="158.88" y1="27.71" x2="157.51" y2="140.31" xlink:href="#1f673a6c-7a4e-479a-9061-f32e3f0bd5c7"/><linearGradient id="81e21e3f-77a8-4823-90b8-1704a696ccad" x1="288.31" y1="18.03" x2="137.01" y2="18.34" xlink:href="#1f673a6c-7a4e-479a-9061-f32e3f0bd5c7"/><linearGradient id="86d0caa1-a700-41a9-ad1b-e6209c201ef3" x1="157.08" y1="27.68" x2="155.69" y2="141.73" xlink:href="#1f673a6c-7a4e-479a-9061-f32e3f0bd5c7"/><linearGradient id="047f4540-5fb4-4db9-928c-6e475dea0d65" x1="288.31" y1="17.43" x2="137.01" y2="17.74" xlink:href="#1f673a6c-7a4e-479a-9061-f32e3f0bd5c7"/><linearGradient id="4c144886-a43f-404a-bd97-097316da5cd7" x1="13.35" y1="147.57" x2="164.08" y2="147.57" xlink:href="#5d59821c-44e6-4843-89e1-a43a05c2e46d"/><linearGradient id="2ab41b3a-9443-4f3e-bea9-836f30f2a47e" x1="178.47" y1="218.26" x2="242.14" y2="136.02" xlink:href="#1f673a6c-7a4e-479a-9061-f32e3f0bd5c7"/><linearGradient id="f8cf35f2-5825-448d-ab00-e6d52b4a8caf" x1="160.69" y1="204.5" x2="224.37" y2="122.26" xlink:href="#5d59821c-44e6-4843-89e1-a43a05c2e46d"/><linearGradient id="fd5f6c45-3759-4b02-8634-1e54c43d36f9" x1="163.33" y1="206.54" x2="227.01" y2="124.3" xlink:href="#1f673a6c-7a4e-479a-9061-f32e3f0bd5c7"/><linearGradient id="c9945f7e-69f0-4544-949b-1eb8806575de" x1="182.21" y1="221.16" x2="245.89" y2="138.92" xlink:href="#1f673a6c-7a4e-479a-9061-f32e3f0bd5c7"/><linearGradient id="10360fa3-be93-4acf-8e4d-4bceaf6b401d" x1="223.83" y1="147.7" x2="255.54" y2="106.74" xlink:href="#1f673a6c-7a4e-479a-9061-f32e3f0bd5c7"/><linearGradient id="111753ab-4b8d-431d-a543-58861864be90" x1="167.25" y1="209.58" x2="230.93" y2="127.34" xlink:href="#1f673a6c-7a4e-479a-9061-f32e3f0bd5c7"/><linearGradient id="44a42cdf-185a-42f5-b03e-e8729226129b" x1="84.8" y1="130.42" x2="207.31" y2="130.42" gradientUnits="userSpaceOnUse"><stop offset="0" stop-color="#fafafc"/><stop offset="0.5" stop-color="#e9ebf1"/><stop offset="1" stop-color="#d8dae5"/></linearGradient></defs><title>logo_Vertical</title><g id="0ca280af-f111-422b-a53f-d84c7b7794d7" data-name="Capa 2"><g id="b68e70d0-5b45-49f2-bb1c-f8295645912e" data-name="Capa 1"><path d="M0,254.23H10.18v22.14H37.46V254.23H47.55V311H37.46v-25.4H10.18V311H0Z" style="fill:#d41989"/><path d="M57.24,259.36a5.83,5.83,0,1,1,5.86,5.78A5.83,5.83,0,0,1,57.24,259.36Zm1,10.58H68v28.83c0,3,.65,4.31,2.85,4.31a9.56,9.56,0,0,0,1.71-.16v8.22a13.49,13.49,0,0,1-4.89.65c-5.13,0-9.44-2.19-9.44-10.42Z" style="fill:#d41989"/><path d="M83.3,294.21a15.26,15.26,0,0,0,14.25,8.63c7.89,0,9.6-4.64,9.6-7.41,0-5.13-4.64-7.09-11.56-9.69-9.12-3.42-16.28-7.17-16.28-17.18,0-9.37,8-15.31,17.58-15.31,8.64,0,14.17,4,17.51,9.2l-7.25,5c-2-3.18-5.21-5.05-10.09-5.05-4.48,0-7.74,2.52-7.74,6,0,5.22,4.56,6.11,12.87,9.53,10.34,4.15,15.14,8.55,15.14,17.26,0,9.61-6.51,16.78-19.87,16.78-10.83,0-18.32-5.13-21.82-12.95Z" style="fill:#eb293e"/><path d="M143.23,269.05c6.92,0,11.64,3.09,13.1,6.84v-5.95h9.78V298.6c0,3.42.81,4.81,3,4.81a17.69,17.69,0,0,0,2-.16v7.89a14.33,14.33,0,0,1-4.81.65,11.21,11.21,0,0,1-5.7-1.3,7.82,7.82,0,0,1-3.34-5C155,309,150.64,312,143.23,312c-11.57,0-20.52-9.29-20.52-21.5S131.66,269.05,143.23,269.05Zm1.3,33.95a12.54,12.54,0,0,0,0-25.08c-6.92,0-12.13,5.38-12.13,12.54S137.61,303,144.53,303Z" style="fill:#eb293e"/><path d="M176.53,254.23h9.77v43.31c0,4,1.3,5.71,4.88,5.71a12.14,12.14,0,0,0,2.93-.33v8.71a18.64,18.64,0,0,1-4.64.49c-5.29,0-12.94-1.47-12.94-13.27Z" style="fill:#eb293e"/><path d="M199.16,269.94h9.77v24c0,5.54,2.94,9.12,8.31,9.12,5.21,0,9-3.91,9-9.52V269.94H236v28.58c0,3.42.81,4.73,3,4.73a17.54,17.54,0,0,0,2-.17v8a14.33,14.33,0,0,1-4.81.65,10.17,10.17,0,0,1-6-1.63,7.93,7.93,0,0,1-2.93-4.31c-1.88,3.26-5.79,6-12.46,6-9.86,0-15.64-6.35-15.64-16.44Z" style="fill:#eb293e"/><path d="M265,269.05c6.92,0,11.65,3.09,13.11,6.84V254.23h9.77V298.6c0,3.42.82,4.81,3,4.81a17.35,17.35,0,0,0,2-.16v7.89a14.23,14.23,0,0,1-4.8.65,11.21,11.21,0,0,1-5.7-1.3,7.82,7.82,0,0,1-3.34-5C276.68,309,272.36,312,265,312c-11.56,0-20.52-9.29-20.52-21.5S253.39,269.05,265,269.05ZM266.26,303a12.54,12.54,0,1,0,0-25.08c-6.92,0-12.14,5.38-12.14,12.54S259.34,303,266.26,303Z" style="fill:#eb293e"/><path d="M163.23,13.61c-.68.49-1.36,1-2,1.48l-.12.09c-.6.45-1.2.91-1.78,1.38a.39.39,0,0,0-.1.08c.61-.49,1.24-1,1.86-1.45l.14-.1c.66-.5,1.33-1,2-1.46l0,0h0Z" style="fill:none"/><path d="M159,16.79l.18-.15h0Z" style="fill:none"/><path d="M165.22,12.25c.38-.25.76-.5,1.15-.74l-.87.55Z" style="fill:none"/><path d="M158.59,17.15l.42-.35h0Z" style="fill:none"/><path d="M203,113.2l-1.25-.14h0Z" style="fill:none"/><path d="M155.41,19.87l-.06.06c.53-.48,1.07-.95,1.61-1.42l.18-.16-.16.14C156.45,19,155.93,19.4,155.41,19.87Z" style="fill:none"/><path d="M169.19,9.78c.41-.25.84-.49,1.26-.73-.2.12-.41.22-.6.34Z" style="fill:none"/><path d="M205.76,113.6l1.14.18Z" style="fill:none"/><path d="M178.69,5h0l.29-.12Z" style="fill:none"/><path d="M203.35,113.25l1.58.22Z" style="fill:none"/><path d="M43.05,127.31c-1.78-1.53-3.5-3.13-5.14-4.8C39.55,124.18,41.27,125.78,43.05,127.31Z" style="fill:#211915"/><path d="M25.58,46.07c.13-1,.3-2,.5-3C25.88,44,25.71,45,25.58,46.07Z" style="fill:none"/><path d="M26.08,43c-.2,1-.37,2-.5,3-.06.51-.11,1-.16,1.55q-.12,1.56-.12,3.15A38.45,38.45,0,0,0,63.75,89.13a40,40,0,0,0,10.62-1.45,43,43,0,0,0,5-1.76,39,39,0,0,0,7.68-4.35c1-.69,1.87-1.42,2.75-2.2L113.25,56l0-.05,1.07-1.07c-2.43-3.54-5.23-7.76-8-11.87-6.31-9.54-12.27-18.55-15-21.06a2.62,2.62,0,0,0-.29-.26,3,3,0,0,0-.26-.24l-.22-.2h0c-.35-.33-.71-.65-1.07-1a40,40,0,0,0-55,3.48,52.42,52.42,0,0,0-4.87,9.49A38.42,38.42,0,0,0,26.08,43Z" style="fill:url(#8397a74d-34c8-45c1-a355-819432c8c33a)"/><path d="M222.38,118.05c1.25.48,2.48,1,3.71,1.53C224.86,119,223.63,118.53,222.38,118.05Z" style="fill:#211915"/><path d="M245.68,131.81h0c.75.64,1.51,1.28,2.24,1.94h0C247.18,133.08,246.43,132.44,245.68,131.81Z" style="fill:none"/><path d="M251,136.68l-.63-.62h0Z" style="fill:none"/><path d="M245.64,131.78h0l-.26-.22h0C245.48,131.63,245.55,131.71,245.64,131.78Z" style="fill:none"/><path d="M240.12,127.53q2.7,1.91,5.27,4h0Q242.83,129.44,240.12,127.53Z" style="fill:none"/><path d="M250.22,135.9a1.29,1.29,0,0,0,.17.16c-.81-.79-1.64-1.56-2.48-2.32h0Q249.08,134.8,250.22,135.9Z" style="fill:none"/><path d="M250.39,136.06h0a1.29,1.29,0,0,1-.17-.16A1.29,1.29,0,0,0,250.39,136.06Z" style="fill:#211915"/><polygon points="247.91 133.74 247.91 133.75 247.91 133.74 247.91 133.74 247.91 133.74" style="fill:#211915"/><path d="M245.67,131.8h0l0,0h0Z" style="fill:#211915"/><polygon points="245.39 131.57 245.39 131.57 245.39 131.57 245.39 131.57 245.39 131.57" style="fill:#211915"/><path d="M201.54,0a80.26,80.26,0,0,0-8.8.49A94.23,94.23,0,0,0,178.69,5h0c-.72.3-1.42.62-2.13.94l-.94.44-1.12.54c-.4.2-.8.4-1.19.61l-.84.43c-.43.22-.86.46-1.28.69l-.73.4c-.42.24-.85.48-1.26.73l-.8.47-1.21.74-.81.52c-.39.24-.77.49-1.15.74-.66.44-1.32.89-2,1.35h0l0,0c-.67.47-1.34,1-2,1.46l-.14.1c-.62.47-1.25,1-1.86,1.45h0l-.18.15h0l-.42.35-1.34,1.1h0a.52.52,0,0,1-.11.1l-.18.16c-.54.47-1.08.94-1.61,1.42l-.42.38c-.48.45-1,.89-1.44,1.35l-.55.55c-.42.41-.84.82-1.25,1.24-.25.25-.48.51-.73.77s-.69.72-1,1.09-.63.7-.94,1.06-.51.56-.76.85c-.55.64-1.1,1.3-1.64,2-1.67,2.07-3.23,4.2-4.68,6.41-.49.73-1,1.47-1.42,2.22-.62,1-1.21,2-1.78,3a83.48,83.48,0,0,0-8.63,22.9c-.5,2.28-.9,4.6-1.2,6.92-.2,1.6-.36,3.2-.47,4.81a9.58,9.58,0,0,1,9-6.3h17.37a9.56,9.56,0,0,1,9.54,9.54V112.2h33.49a9.49,9.49,0,0,1,3.94.86l1.25.14.39,0,1.58.22.83.13,1.14.18,2,.37c1.33.26,2.64.55,3.94.88q2.94.72,5.8,1.67,1.91.63,3.78,1.35c1.25.48,2.48,1,3.71,1.53l1.82.83c1,.48,2,1,3,1.51.56.3,1.11.61,1.66.92,1.09.6,2.17,1.23,3.23,1.88.59.36,1.16.72,1.74,1.1a81.65,81.65,0,0,1,7.81,5.75l.26.22c.76.64,1.52,1.28,2.26,2s1.67,1.53,2.48,2.32l.63.62-.63-.62c.39.45.91,1.08,1.51,1.86l4.81-4.81h0A78,78,0,0,0,201.54,0Z" style="fill:url(#c83f9cd8-7a8a-4c6a-b8eb-fe2f1d6542eb)"/><path d="M233.82,123.5c-.4-.23-.81-.44-1.21-.66-.55-.31-1.1-.62-1.66-.92C231.92,122.43,232.87,123,233.82,123.5Z" style="fill:url(#1f673a6c-7a4e-479a-9061-f32e3f0bd5c7)"/><path d="M239.65,127.2c-.68-.48-1.38-.93-2.07-1.38s-1.15-.74-1.74-1.1l-1.91-1.16Q236.86,125.26,239.65,127.2Z" style="fill:url(#53500c96-645d-4c46-82a7-0a228ed0ffbe)"/><path d="M245.68,131.81c.75.63,1.5,1.27,2.23,1.93C247.18,133.08,246.43,132.44,245.68,131.81Z" style="fill:url(#59ff3153-aadb-4941-b889-e1b780934200)"/><path d="M239.72,127.25l.4.28q2.7,1.91,5.27,4Q242.65,129.27,239.72,127.25Z" style="fill:url(#923a3f67-682c-49fe-9b63-6bcd53850d6a)"/><path d="M239.69,127.22l0,0h0q2.92,2,5.67,4.32h0a81.65,81.65,0,0,0-7.81-5.75c.69.45,1.39.9,2.07,1.38Z" style="fill:#211915"/><path d="M239.69,127.22l0,0h0q2.92,2,5.67,4.32h0a81.65,81.65,0,0,0-7.81-5.75c.69.45,1.39.9,2.07,1.38Z" style="fill:url(#d27049d2-23a0-42ce-9041-98a0ba354c8e)"/><path d="M235.84,124.72c.59.36,1.16.72,1.74,1.1C237,125.44,236.43,125.08,235.84,124.72Z" style="fill:#211915"/><path d="M235.84,124.72c.59.36,1.16.72,1.74,1.1C237,125.44,236.43,125.08,235.84,124.72Z" style="fill:url(#17483e5e-49a5-422b-bcbe-9ba6a4caefe8)"/><path d="M233.93,123.56l1.91,1.16c-1.06-.65-2.14-1.28-3.23-1.88.4.22.81.43,1.21.66Z" style="fill:#211915"/><path d="M233.93,123.56l1.91,1.16c-1.06-.65-2.14-1.28-3.23-1.88.4.22.81.43,1.21.66Z" style="fill:url(#4e869210-9539-415d-8c56-680bb52ff79c)"/><path d="M247.91,133.74h0c-.74-.67-1.5-1.31-2.26-2l0,0C246.43,132.44,247.18,133.08,247.91,133.74Z" style="fill:#211915"/><path d="M247.91,133.74h0c-.74-.67-1.5-1.31-2.26-2l0,0C246.43,132.44,247.18,133.08,247.91,133.74Z" style="fill:url(#3b6859d6-9032-4c7b-be74-09208257d582)"/><path d="M232.61,122.84c-.55-.31-1.1-.62-1.66-.92h0C231.51,122.22,232.06,122.53,232.61,122.84Z" style="fill:#211915"/><path d="M232.61,122.84c-.55-.31-1.1-.62-1.66-.92h0C231.51,122.22,232.06,122.53,232.61,122.84Z" style="fill:url(#6dff31e1-e510-4503-a0e6-9923f851a66e)"/><path d="M14.9,74.69h0a81.76,81.76,0,0,0,18.25,42.59c1.5,1.81,3.07,3.56,4.72,5.23s3.36,3.27,5.14,4.8c.89.76,1.8,1.5,2.72,2.22q2.77,2.17,5.72,4.1a81.15,81.15,0,0,0,12.44,6.66,80.38,80.38,0,0,0,24.3,6.12,9.52,9.52,0,0,1-3.43-7.3V121.74a9.57,9.57,0,0,1,9.54-9.54h33.49V78.71a9.4,9.4,0,0,1,.58-3.24c.11-1.61.27-3.21.47-4.81.3-2.32.7-4.64,1.2-6.92a83.48,83.48,0,0,1,8.63-22.9c.57-1,1.16-2,1.78-3,.46-.75.93-1.49,1.42-2.22,1.45-2.21,3-4.34,4.68-6.41.54-.66,1.09-1.32,1.64-2,.25-.29.51-.57.76-.85s.62-.72.94-1.06.69-.73,1-1.09.48-.52.73-.77c.41-.42.83-.83,1.25-1.24l.55-.55c.48-.46,1-.9,1.44-1.35l.42-.38.06-.06c.52-.47,1-.92,1.57-1.38l.16-.14a.52.52,0,0,0,.11-.1l1.34-1.1.42-.35h0l.18-.15h0a.39.39,0,0,1,.1-.08c.58-.47,1.18-.93,1.78-1.38l.12-.09c.66-.5,1.34-1,2-1.48h0c.65-.46,1.31-.91,2-1.35l.28-.19.87-.55.81-.52,1.21-.74.8-.47.66-.39c.19-.12.4-.22.6-.34l.73-.4c.42-.23.85-.47,1.28-.69l.84-.43c.39-.21.79-.41,1.19-.61l1.12-.54.94-.44c.71-.32,1.41-.64,2.13-.94h0l.29-.12-.29.12A94.23,94.23,0,0,1,192.74.49h-.06l0,0-.34.08a77.34,77.34,0,0,0-45.59,22l0,0L114.32,54.88l0,0-1.07,1.07,0,.05L89.84,79.37c-.88.78-1.8,1.51-2.75,2.2a39,39,0,0,1-7.68,4.35,43,43,0,0,1-5,1.76,40,40,0,0,1-10.62,1.45A38.45,38.45,0,0,1,25.3,50.77q0-1.59.12-3.15c0-.52.1-1,.16-1.55.13-1,.3-2,.5-3a38.42,38.42,0,0,1,3.48-9.81,52.42,52.42,0,0,1,4.87-9.49,40.22,40.22,0,0,0-2.84,3.42c-.29.35-.57.71-.85,1.06a77,77,0,0,0-16.92,40.7c.38,2.09.84,4.13,1.11,5.23Zm76.32,5.47,0,0Z" style="fill:url(#5d59821c-44e6-4843-89e1-a43a05c2e46d)"/><path d="M159,16.8h0Z" style="fill:url(#df4d9553-ada8-4e55-8c11-4fb769d44bf1)"/><path d="M159,16.8h0Z" style="fill:url(#558a6b42-e8bc-4bb9-88fb-f9a6eb6991e9)"/><path d="M157.25,18.25h0a.52.52,0,0,1-.11.1A.52.52,0,0,0,157.25,18.25Z" style="fill:url(#81e21e3f-77a8-4823-90b8-1704a696ccad)"/><path d="M157.25,18.25h0a.52.52,0,0,1-.11.1A.52.52,0,0,0,157.25,18.25Z" style="fill:url(#86d0caa1-a700-41a9-ad1b-e6209c201ef3)"/><path d="M157.25,18.25l1.34-1.1-1.34,1.1Z" style="fill:url(#047f4540-5fb4-4db9-928c-6e475dea0d65)"/><path d="M149.15,224.64a82.5,82.5,0,0,0,12.12-26.19c.24-.93.47-1.87.68-2.81q.63-2.82,1.07-5.7c.21-1.37.38-2.74.52-4.13a9.58,9.58,0,0,1-8.8,5.86H137.37a9.56,9.56,0,0,1-9.54-9.54V148.65H94.34a9.5,9.5,0,0,1-6.11-2.24,80.38,80.38,0,0,1-24.3-6.12,81.15,81.15,0,0,1-12.44-6.66q-2.94-1.92-5.72-4.1c-.92-.72-1.83-1.46-2.72-2.22-1.78-1.53-3.5-3.13-5.14-4.8s-3.22-3.42-4.72-5.23A81.76,81.76,0,0,1,14.94,74.69h0l0-.55c-.27-1.1-.73-3.14-1.11-5.23-.26,2.51-.43,5-.45,7.6,0,.28,0,.56,0,.83a78.17,78.17,0,0,0,24.69,57l80.49,80.49h0a40.86,40.86,0,0,0,28.11,11.39c.42,0,.83,0,1.25,0,.5-.58,1-1.21,1.27-1.56Z" style="fill:url(#4c144886-a43f-404a-bd97-097316da5cd7)"/><path d="M245.39,131.57c.09.06.16.14.25.21C245.55,131.71,245.48,131.63,245.39,131.57Z" style="fill:url(#2ab41b3a-9443-4f3e-bea9-836f30f2a47e)"/><path d="M247.91,133.74c-.73-.66-1.49-1.3-2.24-1.94l-.28-.23q-2.56-2.13-5.27-4l-.4-.28-.07,0q-2.79-2-5.72-3.64l-.11-.06c-.95-.54-1.9-1.07-2.87-1.58s-2-1-3-1.51l-1.82-.83c-1.23-.54-2.46-1-3.71-1.53s-2.51-.93-3.78-1.35q-2.86-.95-5.8-1.67c-1.3-.33-2.61-.62-3.94-.88l-2-.37-1.14-.18-.83-.13-1.58-.22-.39,0-1.25-.14a9.57,9.57,0,0,1,5.6,8.68v17.37a9.58,9.58,0,0,1-9.54,9.54H164.28v33.48a9.37,9.37,0,0,1-.74,3.68c-.14,1.39-.31,2.76-.52,4.13q-.44,2.88-1.07,5.7c-.21.94-.44,1.88-.68,2.81a82.5,82.5,0,0,1-12.12,26.19h0c-.27.35-.77,1-1.27,1.56A40.8,40.8,0,0,0,176,213.82h0l75.89-75.91c-.6-.78-1.12-1.41-1.51-1.86C249.58,135.27,248.75,134.5,247.91,133.74Z" style="fill:url(#f8cf35f2-5825-448d-ab00-e6d52b4a8caf)"/><path d="M227.91,120.41c1,.48,2,1,3,1.51C230,121.4,228.94,120.89,227.91,120.41Z" style="fill:url(#fd5f6c45-3759-4b02-8634-1e54c43d36f9)"/><path d="M247.91,133.74q1.17,1.06,2.31,2.16Q249.08,134.8,247.91,133.74Z" style="fill:url(#c9945f7e-69f0-4544-949b-1eb8806575de)"/><path d="M239.69,127.22l0,0,.07,0h0Z" style="fill:#211915"/><path d="M239.69,127.22l0,0,.07,0h0Z" style="fill:url(#10360fa3-be93-4acf-8e4d-4bceaf6b401d)"/><path d="M233.93,123.56l-.11-.06Z" style="fill:#211915"/><path d="M233.93,123.56l-.11-.06Z" style="fill:url(#111753ab-4b8d-431d-a543-58861864be90)"/><path d="M197.77,112.2H164.28V78.71a9.56,9.56,0,0,0-9.54-9.54H137.37a9.56,9.56,0,0,0-9.54,9.54V112.2H94.34a9.57,9.57,0,0,0-9.54,9.54v17.37a9.58,9.58,0,0,0,9.54,9.54h33.49v33.48a9.56,9.56,0,0,0,9.54,9.54h17.37a9.56,9.56,0,0,0,9.54-9.54V148.65h33.49a9.58,9.58,0,0,0,9.54-9.54V121.74A9.57,9.57,0,0,0,197.77,112.2Z" style="fill:url(#44a42cdf-185a-42f5-b03e-e8729226129b)"/></g></g></svg>