<?xml version="1.0" encoding="utf-8"?>
<!-- Generator: Adobe Illustrator 22.1.0, SVG Export Plug-In . SVG Version: 6.00 Build 0)  -->
<svg version="1.1" id="Capa_1" xmlns="http://www.w3.org/2000/svg" xmlns:xlink="http://www.w3.org/1999/xlink" x="0px" y="0px"
	 viewBox="0 0 545.8 123.1" style="enable-background:new 0 0 545.8 123.1;" xml:space="preserve">
<style type="text/css">
	.st0{fill:#D41989;}
	.st1{fill:#EB293E;}
	.st2{fill:none;}
	.st3{fill:#211915;}
	.st4{fill:url(#SVGID_1_);}
	.st5{fill:url(#SVGID_2_);}
	.st6{fill:url(#SVGID_3_);}
	.st7{fill:url(#SVGID_4_);}
	.st8{fill:url(#SVGID_5_);}
	.st9{fill:url(#SVGID_6_);}
	.st10{fill:url(#SVGID_7_);}
	.st11{fill:url(#SVGID_8_);}
	.st12{fill:url(#SVGID_9_);}
	.st13{fill:url(#SVGID_10_);}
	.st14{fill:url(#SVGID_11_);}
	.st15{fill:url(#SVGID_12_);}
	.st16{fill:url(#SVGID_13_);}
	.st17{fill:url(#SVGID_14_);}
	.st18{fill:url(#SVGID_15_);}
	.st19{fill:url(#SVGID_16_);}
	.st20{fill:url(#SVGID_17_);}
	.st21{fill:url(#SVGID_18_);}
	.st22{fill:url(#SVGID_19_);}
	.st23{fill:url(#SVGID_20_);}
	.st24{fill:url(#SVGID_21_);}
	.st25{fill:url(#SVGID_22_);}
	.st26{fill:url(#SVGID_23_);}
	.st27{fill:url(#SVGID_24_);}
	.st28{fill:url(#SVGID_25_);}
</style>
<title>logo</title>
<g id="b2c40c2d-23fe-4c93-8305-09097f3199bc">
	<g id="df8737dd-b5c6-45d5-b718-387f518739a6">
		<path class="st0" d="M172.1,25.2h13v28.3h34.8V25.2h12.9v72.4h-12.9V65.2h-34.8v32.4h-13L172.1,25.2z"/>
		<path class="st0" d="M245.1,31.8c0-4.1,3.3-7.5,7.4-7.5c4.1,0,7.5,3.3,7.5,7.4c0,4.1-3.3,7.5-7.4,7.5
			C248.5,39.2,245.1,35.9,245.1,31.8C245.1,31.8,245.1,31.8,245.1,31.8z M246.4,45.3h12.5V82c0,3.8,0.8,5.5,3.6,5.5
			c0.7,0,1.5-0.1,2.2-0.2v10.5c-2,0.7-4.1,0.9-6.2,0.8c-6.6,0-12.1-2.8-12.1-13.3V45.3z"/>
		<path class="st1" d="M278.4,76.2c3.4,6.9,10.5,11.3,18.2,11c10.1,0,12.3-5.9,12.3-9.4c0-6.6-5.9-9-14.8-12.4
			c-11.6-4.4-20.8-9.1-20.8-21.9c0-11.9,10.2-19.5,22.4-19.5c11,0,18.1,5.1,22.3,11.7l-9.2,6.3c-2.6-4.1-6.6-6.5-12.9-6.5
			c-5.7,0-9.9,3.2-9.9,7.7c0,6.7,5.8,7.8,16.4,12.2c13.2,5.3,19.3,10.9,19.3,22c0,12.3-8.3,21.4-25.4,21.4
			c-13.8,0-23.4-6.6-27.8-16.5L278.4,76.2z"/>
		<path class="st1" d="M354.8,44.1c8.8,0,14.9,4,16.7,8.7v-7.6H384v36.6c0,4.4,1,6.1,3.8,6.1c0.9,0,1.7-0.1,2.6-0.2v10.1
			c-2,0.6-4.1,0.9-6.1,0.8c-2.5,0.1-5-0.5-7.3-1.7c-2.2-1.5-3.7-3.7-4.3-6.3c-3,4.5-8.5,8.2-18,8.2c-14.8,0-26.2-11.8-26.2-27.4
			S340.1,44.1,354.8,44.1z M356.5,87.4c8.8,0,16-7.2,16-16s-7.2-16-16-16c-8.8,0-15.5,6.9-15.5,16S347.6,87.4,356.5,87.4z"/>
		<path class="st1" d="M397.3,25.2h12.5v55.3c0,5.1,1.7,7.3,6.2,7.3c1.3,0,2.5-0.1,3.7-0.4v11.1c-1.9,0.5-3.9,0.7-5.9,0.6
			c-6.8,0-16.5-1.9-16.5-16.9V25.2z"/>
		<path class="st1" d="M426.2,45.3h12.5v30.6c0,7.1,3.7,11.6,10.6,11.6c6.6,0,11.4-5,11.4-12.2V45.3h12.5v36.5c0,4.4,1,6,3.8,6
			c0.9,0,1.7-0.1,2.6-0.2v10.2c-2,0.6-4.1,0.9-6.1,0.8c-2.7,0.1-5.4-0.6-7.7-2.1c-1.8-1.4-3.2-3.3-3.8-5.5
			c-2.4,4.2-7.4,7.7-15.9,7.7c-12.6,0-20-8.1-20-21L426.2,45.3z"/>
		<path class="st1" d="M510.1,44.1c8.8,0,14.9,4,16.7,8.7V25.2h12.5v56.6c0,4.4,1,6.1,3.8,6.1c0.9,0,1.7-0.1,2.6-0.2v10.1
			c-2,0.6-4.1,0.9-6.1,0.8c-2.5,0.1-5-0.5-7.3-1.7c-2.2-1.5-3.7-3.7-4.3-6.3c-3,4.5-8.5,8.2-18,8.2C495.4,98.9,484,87,484,71.4
			S495.4,44.1,510.1,44.1z M511.8,87.4c8.8,0,16-7.2,16-16s-7.2-16-16-16c-8.8,0-15.5,6.9-15.5,16S503,87.4,511.8,87.4L511.8,87.4z"
			/>
		<path class="st2" d="M81.5,7.4l-1.1,0.8h-0.1c-0.3,0.2-0.7,0.5-1,0.8l0,0c0.3-0.3,0.7-0.5,1-0.8h0.1L81.5,7.4L81.5,7.4L81.5,7.4z"
			/>
		<path class="st2" d="M79.2,9.1L79.2,9.1L79.2,9.1L79.2,9.1z"/>
		<path class="st2" d="M82.6,6.7l0.6-0.4l-0.5,0.3L82.6,6.7z"/>
		<path class="st2" d="M79,9.3l0.2-0.2l0,0L79,9.3z"/>
		<path class="st2" d="M103.1,61.6l-0.7-0.1l0,0L103.1,61.6z"/>
		<path class="st2" d="M77.3,10.8L77.3,10.8l0.9-0.8l0.1-0.1L78.2,10C77.8,10.3,77.6,10.5,77.3,10.8z"/>
		<path class="st2" d="M84.8,5.3l0.7-0.4l-0.3,0.2L84.8,5.3z"/>
		<path class="st2" d="M104.7,61.8l0.6,0.1L104.7,61.8z"/>
		<path class="st2" d="M89.9,2.7L89.9,2.7l0.2-0.1L89.9,2.7z"/>
		<path class="st2" d="M103.3,61.6l0.9,0.1L103.3,61.6z"/>
		<path class="st3" d="M16.2,69.2c-1-0.8-1.9-1.7-2.8-2.6C14.3,67.5,15.2,68.4,16.2,69.2z"/>
		<path class="st2" d="M6.7,25.1c0.1-0.6,0.2-1.1,0.3-1.7C6.8,24,6.7,24.5,6.7,25.1z"/>
		
			<linearGradient id="SVGID_1_" gradientUnits="userSpaceOnUse" x1="54.55" y1="96.5688" x2="6.1114" y2="96.7689" gradientTransform="matrix(1 0 0 -1 0 123.89)">
			<stop  offset="0" style="stop-color:#EA1EF6"/>
			<stop  offset="0.48" style="stop-color:#DF1CC0"/>
			<stop  offset="1" style="stop-color:#D41989"/>
		</linearGradient>
		<path class="st4" d="M6.9,23.4c-0.1,0.5-0.2,1.1-0.3,1.7c0,0.3-0.1,0.6-0.1,0.8c-0.1,0.6-0.1,1.1-0.1,1.7
			c0,11.5,9.4,20.9,20.9,20.9c2,0,3.9-0.3,5.8-0.8c0.9-0.3,1.8-0.6,2.7-1c1.5-0.6,2.9-1.4,4.2-2.4c0.5-0.4,1-0.8,1.5-1.2l12.7-12.7
			l0,0l0.6-0.6c-1.3-1.9-2.8-4.2-4.3-6.5c-3.4-5.2-6.7-10.1-8.2-11.4l-0.2-0.1l-0.1-0.1L42,11.5l0,0c-0.2-0.2-0.4-0.4-0.6-0.5
			c-8.9-7.4-22.1-6.6-29.9,1.9c-1.1,1.6-1.9,3.4-2.6,5.2C8,19.7,7.3,21.5,6.9,23.4z"/>
		<path class="st3" d="M113.7,64.2c0.7,0.3,1.3,0.5,2,0.8C115.1,64.7,114.4,64.5,113.7,64.2z"/>
		<path class="st2" d="M126.4,71.7L126.4,71.7c0.4,0.3,0.8,0.7,1.2,1.1l0,0C127.2,72.4,126.8,72,126.4,71.7z"/>
		<path class="st2" d="M129.3,74.3l-0.4-0.3l0,0L129.3,74.3z"/>
		<path class="st2" d="M126.3,71.7L126.3,71.7l-0.1-0.1l0,0L126.3,71.7z"/>
		<path class="st2" d="M123.3,69.4c1,0.7,1.9,1.4,2.9,2.2l0,0C125.3,70.8,124.3,70.1,123.3,69.4z"/>
		<path class="st2" d="M128.8,73.9L128.8,73.9c-0.4-0.3-0.8-0.8-1.3-1.2l0,0C128,73.1,128.4,73.5,128.8,73.9z"/>
		<path class="st3" d="M128.9,74L128.9,74L128.9,74L128.9,74z"/>
		<polygon class="st3" points="127.6,72.7 127.6,72.7 127.6,72.7 127.6,72.7 		"/>
		<path class="st3" d="M126.4,71.7L126.4,71.7L126.4,71.7L126.4,71.7z"/>
		<polygon class="st3" points="126.2,71.6 126.2,71.6 126.2,71.6 126.2,71.6 		"/>
		
			<linearGradient id="SVGID_2_" gradientUnits="userSpaceOnUse" x1="149.6098" y1="86.5319" x2="67.3198" y2="86.362" gradientTransform="matrix(1 0 0 -1 0 123.89)">
			<stop  offset="0" style="stop-color:#FF8402"/>
			<stop  offset="1" style="stop-color:#EB293E"/>
		</linearGradient>
		<path class="st5" d="M102.4,0c-1.6,0-3.2,0.1-4.8,0.3c-2.6,0.6-5.2,1.4-7.7,2.5l0,0c-0.4,0.2-0.8,0.3-1.2,0.5l-0.5,0.2l-0.6,0.3
			L87,4.1l-0.5,0.2l-0.7,0.4l-0.4,0.2l-0.7,0.4l-0.4,0.3L83.7,6l-0.4,0.3l-0.6,0.4l-1.1,0.7l0,0l-1.1,0.8h-0.1
			c-0.3,0.3-0.7,0.5-1,0.8l0,0l-0.1,0.1l0,0L79,9.3c-0.2,0.2-0.5,0.4-0.7,0.6l0,0L78.2,10l-0.1,0.1l-0.9,0.8L77,11l-0.8,0.7
			l-0.3,0.3c-0.2,0.2-0.5,0.4-0.7,0.7S75,13,74.8,13.2l-0.6,0.6l-0.5,0.6l-0.4,0.5l-0.9,1.1c-0.9,1.1-1.7,2.3-2.5,3.5
			c-0.3,0.4-0.5,0.8-0.8,1.2s-0.7,1.1-1,1.6c-1.2,2.2-2.3,4.5-3.1,6.9c-0.6,1.8-1.2,3.6-1.6,5.5c-0.3,1.2-0.5,2.5-0.7,3.8
			c-0.1,0.9-0.2,1.7-0.3,2.6c0.7-2.1,2.7-3.4,4.9-3.4h9.4c2.9,0,5.2,2.3,5.2,5.2V61h18.2c0.7,0,1.5,0.2,2.1,0.5l0.7,0.1h0.2l0.9,0.1
			l0.4,0.1l0.6,0.1l1.1,0.2c0.7,0.1,1.4,0.3,2.1,0.5c1.1,0.3,2.1,0.6,3.2,0.9c0.7,0.2,1.4,0.5,2.1,0.7s1.3,0.5,2,0.8l1,0.5
			c0.6,0.3,1.1,0.5,1.7,0.8l0.9,0.5c0.6,0.3,1.2,0.7,1.8,1c0.3,0.2,0.6,0.4,0.9,0.6c1.5,1,2.9,2,4.3,3.1l0.1,0.1
			c0.4,0.3,0.8,0.7,1.2,1.1s0.9,0.8,1.3,1.3l0.4,0.3l-0.4-0.3c0.2,0.2,0.5,0.6,0.8,1l2.6-2.6l0,0c16.6-16.6,16.5-43.5-0.1-60
			C124.3,4.4,113.5-0.1,102.4,0L102.4,0z"/>
		
			<linearGradient id="SVGID_3_" gradientUnits="userSpaceOnUse" x1="149.68" y1="57.1857" x2="67.38" y2="57.0157" gradientTransform="matrix(1 0 0 -1 0 123.89)">
			<stop  offset="0" style="stop-color:#E3D0D3"/>
			<stop  offset="0.27" style="stop-color:#DABABE"/>
			<stop  offset="1" style="stop-color:#C38389"/>
		</linearGradient>
		<path class="st6" d="M119.9,67.2l-0.7-0.4l-0.9-0.5C118.9,66.6,119.4,66.9,119.9,67.2z"/>
		
			<linearGradient id="SVGID_4_" gradientUnits="userSpaceOnUse" x1="149.68" y1="55.7307" x2="67.38" y2="55.5607" gradientTransform="matrix(1 0 0 -1 0 123.89)">
			<stop  offset="0" style="stop-color:#E3D0D3"/>
			<stop  offset="0.27" style="stop-color:#DABABE"/>
			<stop  offset="1" style="stop-color:#C38389"/>
		</linearGradient>
		<path class="st7" d="M123.1,69.2c-0.4-0.3-0.8-0.5-1.1-0.8s-0.6-0.4-0.9-0.6s-0.7-0.4-1-0.6C121,67.8,122.1,68.5,123.1,69.2z"/>
		
			<linearGradient id="SVGID_5_" gradientUnits="userSpaceOnUse" x1="149.69" y1="51.7195" x2="67.39" y2="51.5495" gradientTransform="matrix(1 0 0 -1 0 123.89)">
			<stop  offset="0" style="stop-color:#E3D0D3"/>
			<stop  offset="0.27" style="stop-color:#DABABE"/>
			<stop  offset="1" style="stop-color:#C38389"/>
		</linearGradient>
		<path class="st8" d="M126.4,71.7c0.4,0.3,0.8,0.7,1.2,1C127.2,72.4,126.8,72,126.4,71.7z"/>
		
			<linearGradient id="SVGID_6_" gradientUnits="userSpaceOnUse" x1="149.68" y1="53.5393" x2="67.39" y2="53.3693" gradientTransform="matrix(1 0 0 -1 0 123.89)">
			<stop  offset="0" style="stop-color:#E3D0D3"/>
			<stop  offset="0.27" style="stop-color:#DABABE"/>
			<stop  offset="1" style="stop-color:#C38389"/>
		</linearGradient>
		<path class="st9" d="M123.1,69.2l0.2,0.2c1,0.7,1.9,1.4,2.9,2.2C125.2,70.7,124.2,70,123.1,69.2z"/>
		<path class="st3" d="M123.1,69.2L123.1,69.2c1.1,0.7,2.1,1.5,3.1,2.3l0,0c-1.3-1.1-2.7-2.2-4.2-3.1
			C122.4,68.7,122.8,68.9,123.1,69.2L123.1,69.2z"/>
		
			<linearGradient id="SVGID_7_" gradientUnits="userSpaceOnUse" x1="149.68" y1="53.9305" x2="67.39" y2="53.7605" gradientTransform="matrix(1 0 0 -1 0 123.89)">
			<stop  offset="0" style="stop-color:#E3D0D3"/>
			<stop  offset="0.27" style="stop-color:#DABABE"/>
			<stop  offset="1" style="stop-color:#C38389"/>
		</linearGradient>
		<path class="st10" d="M123.1,69.2L123.1,69.2c1.1,0.7,2.1,1.5,3.1,2.3l0,0c-1.3-1.1-2.7-2.2-4.2-3.1
			C122.4,68.7,122.8,68.9,123.1,69.2L123.1,69.2z"/>
		<path class="st3" d="M121,67.8c0.3,0.2,0.6,0.4,0.9,0.6C121.7,68.2,121.3,68,121,67.8z"/>
		
			<linearGradient id="SVGID_8_" gradientUnits="userSpaceOnUse" x1="149.68" y1="55.7909" x2="67.38" y2="55.6209" gradientTransform="matrix(1 0 0 -1 0 123.89)">
			<stop  offset="0" style="stop-color:#E3D0D3"/>
			<stop  offset="0.27" style="stop-color:#DABABE"/>
			<stop  offset="1" style="stop-color:#C38389"/>
		</linearGradient>
		<path class="st11" d="M121,67.8c0.3,0.2,0.6,0.4,0.9,0.6C121.7,68.2,121.3,68,121,67.8z"/>
		<path class="st3" d="M120,67.2c0.3,0.2,0.7,0.4,1,0.6c-0.6-0.4-1.2-0.7-1.8-1L120,67.2L120,67.2z"/>
		
			<linearGradient id="SVGID_9_" gradientUnits="userSpaceOnUse" x1="149.68" y1="56.5937" x2="67.38" y2="56.4237" gradientTransform="matrix(1 0 0 -1 0 123.89)">
			<stop  offset="0" style="stop-color:#E3D0D3"/>
			<stop  offset="0.27" style="stop-color:#DABABE"/>
			<stop  offset="1" style="stop-color:#C38389"/>
		</linearGradient>
		<path class="st12" d="M120,67.2c0.3,0.2,0.7,0.4,1,0.6c-0.6-0.4-1.2-0.7-1.8-1L120,67.2L120,67.2z"/>
		<path class="st3" d="M127.6,72.7L127.6,72.7c-0.4-0.4-0.8-0.7-1.2-1.1l0,0C126.8,72,127.2,72.4,127.6,72.7z"/>
		
			<linearGradient id="SVGID_10_" gradientUnits="userSpaceOnUse" x1="149.69" y1="51.7045" x2="67.39" y2="51.5346" gradientTransform="matrix(1 0 0 -1 0 123.89)">
			<stop  offset="0" style="stop-color:#E3D0D3"/>
			<stop  offset="0.27" style="stop-color:#DABABE"/>
			<stop  offset="1" style="stop-color:#C38389"/>
		</linearGradient>
		<path class="st13" d="M127.6,72.7L127.6,72.7c-0.4-0.4-0.8-0.7-1.2-1.1l0,0C126.8,72,127.2,72.4,127.6,72.7z"/>
		<path class="st3" d="M119.3,66.8l-0.9-0.5l0,0L119.3,66.8z"/>
		
			<linearGradient id="SVGID_11_" gradientUnits="userSpaceOnUse" x1="149.67" y1="57.3714" x2="67.38" y2="57.2014" gradientTransform="matrix(1 0 0 -1 0 123.89)">
			<stop  offset="0" style="stop-color:#E3D0D3"/>
			<stop  offset="0.27" style="stop-color:#DABABE"/>
			<stop  offset="1" style="stop-color:#C38389"/>
		</linearGradient>
		<path class="st14" d="M119.3,66.8l-0.9-0.5l0,0L119.3,66.8z"/>
		
			<linearGradient id="SVGID_12_" gradientUnits="userSpaceOnUse" x1="48.9712" y1="109.19" x2="48.2111" y2="47.16" gradientTransform="matrix(1 0 0 -1 0 123.89)">
			<stop  offset="0" style="stop-color:#FF8402"/>
			<stop  offset="0.38" style="stop-color:#F7601A"/>
			<stop  offset="1" style="stop-color:#EB293E"/>
		</linearGradient>
		<path class="st15" d="M0.8,40.6L0.8,40.6c1,8.5,4.5,16.6,9.9,23.2c0.8,1,1.7,1.9,2.6,2.8s1.8,1.8,2.8,2.6c0.5,0.4,1,0.8,1.5,1.2
			c1,0.8,2,1.5,3.1,2.2c2.1,1.4,4.4,2.6,6.8,3.6c4.2,1.8,8.7,2.9,13.2,3.3c-1.2-1-1.9-2.5-1.9-4v-9.4c0-2.9,2.3-5.2,5.2-5.2
			c0,0,0,0,0,0h18.2V42.8c0-0.6,0.1-1.2,0.3-1.8c0.1-0.9,0.1-1.8,0.3-2.6c0.2-1.3,0.4-2.5,0.7-3.8c0.4-1.9,0.9-3.7,1.6-5.5
			c0.9-2.4,1.9-4.7,3.1-6.9c0.3-0.6,0.6-1.1,1-1.6c0.3-0.4,0.5-0.8,0.8-1.2c0.8-1.2,1.6-2.4,2.5-3.5l0.9-1.1l0.4-0.5l0.5-0.6
			l0.6-0.6c0.1-0.1,0.3-0.3,0.4-0.4s0.4-0.5,0.7-0.7l0.3-0.3l0.8-0.7l0.2-0.2l0,0c0.3-0.3,0.6-0.5,0.8-0.8l0.1-0.1l0.1-0.1
			c0.2-0.2,0.5-0.4,0.7-0.6l0.2-0.2l0,0l0.1-0.1l0,0l0,0c0.3-0.3,0.6-0.5,1-0.8h0.1l1.1-0.8l0,0l1.1-0.7l0.2-0.1l0.5-0.3L83.7,6
			l0.7-0.4l0.4-0.3l0.4-0.2l0.3-0.2l0.4-0.2l0.7-0.4L87,4.1l0.7-0.3l0.6-0.3l0.5-0.2c0.4-0.2,0.8-0.3,1.2-0.5l0,0l0.2-0.1l-0.2,0.1
			c2.5-1,5-1.8,7.6-2.5l0,0l0,0h-0.2c-9.4,1.1-18.1,5.3-24.8,12l0,0L54.9,29.8l0,0l-0.6,0.6l0,0L41.6,43.2c-0.5,0.4-1,0.8-1.5,1.2
			c-1.3,0.9-2.7,1.7-4.2,2.4c-0.9,0.4-1.8,0.7-2.7,1c-1.9,0.5-3.8,0.8-5.8,0.8c-11.5,0-20.9-9.4-20.9-20.9c0-0.6,0-1.1,0.1-1.7
			c0-0.3,0-0.6,0.1-0.8c0.1-0.6,0.2-1.1,0.3-1.7c0.4-1.9,1-3.6,1.9-5.3c0.7-1.8,1.6-3.5,2.7-5.2c-0.6,0.6-1.1,1.2-1.6,1.9l-0.5,0.6
			c-5.2,6.3-8.4,14-9.2,22.1c0.2,1.1,0.4,2.3,0.6,2.8C0.9,40.4,0.9,40.5,0.8,40.6z M42.4,43.6L42.4,43.6z"/>
		
			<linearGradient id="SVGID_13_" gradientUnits="userSpaceOnUse" x1="149.56" y1="114.8816" x2="76.16" y2="114.7316" gradientTransform="matrix(1 0 0 -1 0 123.89)">
			<stop  offset="0" style="stop-color:#E3D0D3"/>
			<stop  offset="0.27" style="stop-color:#DABABE"/>
			<stop  offset="1" style="stop-color:#C38389"/>
		</linearGradient>
		<polygon class="st16" points="79.2,9.1 79.2,9.1 79.2,9.1 		"/>
		
			<linearGradient id="SVGID_14_" gradientUnits="userSpaceOnUse" x1="79.1623" y1="108.82" x2="78.4123" y2="47.57" gradientTransform="matrix(1 0 0 -1 0 123.89)">
			<stop  offset="0" style="stop-color:#E3D0D3"/>
			<stop  offset="0.27" style="stop-color:#DABABE"/>
			<stop  offset="1" style="stop-color:#C38389"/>
		</linearGradient>
		<polygon class="st17" points="79.2,9.1 79.2,9.1 79.2,9.1 		"/>
		
			<linearGradient id="SVGID_15_" gradientUnits="userSpaceOnUse" x1="149.56" y1="114.0648" x2="67.26" y2="113.8948" gradientTransform="matrix(1 0 0 -1 0 123.89)">
			<stop  offset="0" style="stop-color:#E3D0D3"/>
			<stop  offset="0.27" style="stop-color:#DABABE"/>
			<stop  offset="1" style="stop-color:#C38389"/>
		</linearGradient>
		<path class="st18" d="M78.3,9.9L78.3,9.9L78.3,9.9L78.3,9.9z"/>
		
			<linearGradient id="SVGID_16_" gradientUnits="userSpaceOnUse" x1="78.1775" y1="108.83" x2="77.4174" y2="46.8" gradientTransform="matrix(1 0 0 -1 0 123.89)">
			<stop  offset="0" style="stop-color:#E3D0D3"/>
			<stop  offset="0.27" style="stop-color:#DABABE"/>
			<stop  offset="1" style="stop-color:#C38389"/>
		</linearGradient>
		<path class="st19" d="M78.3,9.9L78.3,9.9L78.3,9.9L78.3,9.9z"/>
		
			<linearGradient id="SVGID_17_" gradientUnits="userSpaceOnUse" x1="149.56" y1="114.389" x2="67.26" y2="114.219" gradientTransform="matrix(1 0 0 -1 0 123.89)">
			<stop  offset="0" style="stop-color:#E3D0D3"/>
			<stop  offset="0.27" style="stop-color:#DABABE"/>
			<stop  offset="1" style="stop-color:#C38389"/>
		</linearGradient>
		<path class="st20" d="M78.3,9.9c0.2-0.2,0.5-0.4,0.7-0.6C78.8,9.5,78.5,9.7,78.3,9.9z"/>
		
			<linearGradient id="SVGID_18_" gradientUnits="userSpaceOnUse" x1="0" y1="43.63" x2="81.99" y2="43.63" gradientTransform="matrix(1 0 0 -1 0 123.89)">
			<stop  offset="0" style="stop-color:#FF8402"/>
			<stop  offset="0.38" style="stop-color:#F7601A"/>
			<stop  offset="1" style="stop-color:#EB293E"/>
		</linearGradient>
		<path class="st21" d="M73.9,122.2c1.2-1.7,2.3-3.6,3.3-5.4c1.4-2.8,2.5-5.8,3.3-8.8c0.1-0.5,0.3-1,0.4-1.5c0.2-1,0.4-2.1,0.6-3.1
			c0.1-0.8,0.2-1.5,0.3-2.3c-0.8,1.9-2.7,3.2-4.8,3.2h-9.5c-2.9,0-5.2-2.3-5.2-5.2V80.8H44c-1.2,0-2.4-0.4-3.3-1.2
			c-4.6-0.4-9-1.5-13.2-3.3c-2.4-1-4.6-2.2-6.8-3.6c-1.1-0.7-2.1-1.4-3.1-2.2c-0.5-0.4-1-0.8-1.5-1.2c-1-0.8-1.9-1.7-2.8-2.6
			s-1.8-1.9-2.6-2.8c-5.5-6.6-8.9-14.6-9.9-23.2l0,0c0-0.1,0-0.2,0-0.3c-0.1-0.6-0.4-1.7-0.6-2.8C0.1,38.9,0,40.2,0,41.6
			c0,0.2,0,0.3,0,0.5c0,11.7,4.9,23,13.4,31l43.8,43.8l0,0c4.1,3.9,9.6,6.2,15.3,6.2h0.7C73.4,122.7,73.7,122.4,73.9,122.2
			L73.9,122.2z"/>
		
			<linearGradient id="SVGID_19_" gradientUnits="userSpaceOnUse" x1="89.8066" y1="5.1726" x2="124.4466" y2="49.9026" gradientTransform="matrix(1 0 0 -1 0 123.89)">
			<stop  offset="0" style="stop-color:#E3D0D3"/>
			<stop  offset="0.27" style="stop-color:#DABABE"/>
			<stop  offset="1" style="stop-color:#C38389"/>
		</linearGradient>
		<path class="st22" d="M126.2,71.6l0.1,0.1L126.2,71.6z"/>
		
			<linearGradient id="SVGID_20_" gradientUnits="userSpaceOnUse" x1="80.15" y1="12.6522" x2="114.79" y2="57.3822" gradientTransform="matrix(1 0 0 -1 0 123.89)">
			<stop  offset="0" style="stop-color:#FF8402"/>
			<stop  offset="0.38" style="stop-color:#F7601A"/>
			<stop  offset="1" style="stop-color:#EB293E"/>
		</linearGradient>
		<path class="st23" d="M127.6,72.7c-0.4-0.4-0.8-0.7-1.2-1.1l-0.2-0.1c-0.9-0.8-1.9-1.5-2.9-2.2l-0.2-0.2l0,0c-1-0.7-2-1.4-3.1-2
			H120c-0.5-0.3-1-0.6-1.6-0.9s-1.1-0.6-1.7-0.8l-1-0.5c-0.7-0.3-1.3-0.6-2-0.8s-1.4-0.5-2.1-0.7c-1-0.3-2.1-0.7-3.2-0.9
			c-0.7-0.2-1.4-0.3-2.1-0.5l-1.1-0.2l-0.6-0.1l-0.4-0.1l-0.9-0.1h-0.2l-0.7-0.1c1.8,0.9,3,2.7,3,4.7v9.4c0,2.9-2.3,5.2-5.2,5.2
			H82.1v18.2c0,0.7-0.1,1.4-0.4,2c-0.1,0.8-0.2,1.5-0.3,2.3c-0.2,1-0.3,2.1-0.6,3.1c-0.1,0.5-0.2,1-0.4,1.5c-0.8,3-1.9,6-3.3,8.8
			c-1,1.9-2,3.7-3.3,5.4l0,0c-0.2,0.2-0.4,0.5-0.7,0.8c5.8-0.2,11.3-2.6,15.3-6.7l0,0L129.8,75c-0.3-0.4-0.6-0.8-0.8-1
			C128.5,73.6,128,73.2,127.6,72.7z"/>
		
			<linearGradient id="SVGID_21_" gradientUnits="userSpaceOnUse" x1="81.5855" y1="11.5457" x2="116.2155" y2="56.2757" gradientTransform="matrix(1 0 0 -1 0 123.89)">
			<stop  offset="0" style="stop-color:#E3D0D3"/>
			<stop  offset="0.27" style="stop-color:#DABABE"/>
			<stop  offset="1" style="stop-color:#C38389"/>
		</linearGradient>
		<path class="st24" d="M116.7,65.5c0.6,0.3,1.1,0.5,1.7,0.8C117.8,66,117.3,65.8,116.7,65.5z"/>
		
			<linearGradient id="SVGID_22_" gradientUnits="userSpaceOnUse" x1="91.8529" y1="3.5877" x2="126.4829" y2="48.3177" gradientTransform="matrix(1 0 0 -1 0 123.89)">
			<stop  offset="0" style="stop-color:#E3D0D3"/>
			<stop  offset="0.27" style="stop-color:#DABABE"/>
			<stop  offset="1" style="stop-color:#C38389"/>
		</linearGradient>
		<path class="st25" d="M127.6,72.7c0.4,0.4,0.8,0.8,1.3,1.2C128.4,73.5,128,73.1,127.6,72.7z"/>
		<path class="st3" d="M123.1,69.2L123.1,69.2L123.1,69.2L123.1,69.2z"/>
		
			<linearGradient id="SVGID_23_" gradientUnits="userSpaceOnUse" x1="123.11" y1="54.69" x2="123.11" y2="54.69" gradientTransform="matrix(1 0 0 -1 0 123.89)">
			<stop  offset="0" style="stop-color:#E3D0D3"/>
			<stop  offset="0.27" style="stop-color:#DABABE"/>
			<stop  offset="1" style="stop-color:#C38389"/>
		</linearGradient>
		<path class="st26" d="M123.1,69.2L123.1,69.2L123.1,69.2L123.1,69.2z"/>
		<path class="st3" d="M120,67.2L120,67.2L120,67.2z"/>
		
			<linearGradient id="SVGID_24_" gradientUnits="userSpaceOnUse" x1="83.7305" y1="9.8741" x2="118.3705" y2="54.6141" gradientTransform="matrix(1 0 0 -1 0 123.89)">
			<stop  offset="0" style="stop-color:#E3D0D3"/>
			<stop  offset="0.27" style="stop-color:#DABABE"/>
			<stop  offset="1" style="stop-color:#C38389"/>
		</linearGradient>
		<path class="st27" d="M120,67.2L120,67.2L120,67.2z"/>
		
			<linearGradient id="SVGID_25_" gradientUnits="userSpaceOnUse" x1="38.86" y1="52.95" x2="105.5" y2="52.95" gradientTransform="matrix(1 0 0 -1 0 123.89)">
			<stop  offset="0" style="stop-color:#FAFAFC"/>
			<stop  offset="0.5" style="stop-color:#E9EBF1"/>
			<stop  offset="1" style="stop-color:#D8DAE5"/>
		</linearGradient>
		<path class="st28" d="M100.3,61H82.1V42.8c0-2.9-2.3-5.2-5.2-5.2h-9.4c-2.9,0-5.2,2.3-5.2,5.2V61H44c-2.9,0-5.2,2.3-5.2,5.2v9.4
			c0,2.9,2.3,5.2,5.2,5.2h18.2v18.2c0,2.9,2.3,5.2,5.2,5.2h9.4c2.9,0,5.2-2.3,5.2-5.2V80.8h18.2c2.9,0,5.2-2.3,5.2-5.2v-9.4
			C105.5,63.3,103.2,61,100.3,61C100.3,61,100.3,61,100.3,61z"/>
	</g>
</g>
</svg>
