<?xml version="1.0" encoding="utf-8"?>
<!-- Generator: Adobe Illustrator 22.1.0, SVG Export Plug-In . SVG Version: 6.00 Build 0)  -->
<svg version="1.1" id="Capa_1" xmlns="http://www.w3.org/2000/svg" xmlns:xlink="http://www.w3.org/1999/xlink" x="0px" y="0px"
	 viewBox="0 0 144.7 123.1" style="enable-background:new 0 0 144.7 123.1;" xml:space="preserve">
<style type="text/css">
	.st0{fill:none;}
	.st1{fill:#211915;}
	.st2{fill:url(#SVGID_1_);}
	.st3{fill:url(#SVGID_2_);}
	.st4{fill:url(#SVGID_3_);}
	.st5{fill:url(#SVGID_4_);}
	.st6{fill:url(#SVGID_5_);}
	.st7{fill:url(#SVGID_6_);}
	.st8{fill:url(#SVGID_7_);}
	.st9{fill:url(#SVGID_8_);}
	.st10{fill:url(#SVGID_9_);}
	.st11{fill:url(#SVGID_10_);}
	.st12{fill:url(#SVGID_11_);}
	.st13{fill:url(#SVGID_12_);}
	.st14{fill:url(#SVGID_13_);}
	.st15{fill:url(#SVGID_14_);}
	.st16{fill:url(#SVGID_15_);}
	.st17{fill:url(#SVGID_16_);}
	.st18{fill:url(#SVGID_17_);}
	.st19{fill:url(#SVGID_18_);}
	.st20{fill:url(#SVGID_19_);}
	.st21{fill:url(#SVGID_20_);}
	.st22{fill:url(#SVGID_21_);}
	.st23{fill:url(#SVGID_22_);}
	.st24{fill:url(#SVGID_23_);}
	.st25{fill:url(#SVGID_24_);}
	.st26{fill:url(#SVGID_25_);}
</style>
<g>
	<title>logo</title>
	<path class="st0" d="M81.5,7.5l-1.1,0.8h-0.1c-0.3,0.2-0.7,0.5-1,0.8l0,0c0.3-0.3,0.7-0.5,1-0.8h0.1L81.5,7.5L81.5,7.5L81.5,7.5z"
		/>
	<path class="st0" d="M79.2,9.2L79.2,9.2L79.2,9.2L79.2,9.2z"/>
	<path class="st0" d="M82.6,6.8l0.6-0.4l-0.5,0.3L82.6,6.8z"/>
	<path class="st0" d="M79,9.4l0.2-0.2l0,0L79,9.4z"/>
	<path class="st0" d="M103.1,61.7l-0.7-0.1l0,0L103.1,61.7z"/>
	<path class="st0" d="M77.3,10.9L77.3,10.9l0.9-0.8l0.1-0.1l-0.1,0.1C77.8,10.4,77.6,10.6,77.3,10.9z"/>
	<path class="st0" d="M84.8,5.4L85.5,5l-0.3,0.2L84.8,5.4z"/>
	<path class="st0" d="M104.7,61.9l0.6,0.1L104.7,61.9z"/>
	<path class="st0" d="M89.9,2.8L89.9,2.8l0.2-0.1L89.9,2.8z"/>
	<path class="st0" d="M103.3,61.7l0.9,0.1L103.3,61.7z"/>
	<path class="st1" d="M16.2,69.3c-1-0.8-1.9-1.7-2.8-2.6C14.3,67.7,15.2,68.5,16.2,69.3z"/>
	<path class="st0" d="M6.7,25.2c0.1-0.6,0.2-1.1,0.3-1.7C6.8,24.1,6.7,24.6,6.7,25.2z"/>
	
		<linearGradient id="SVGID_1_" gradientUnits="userSpaceOnUse" x1="54.55" y1="65.9088" x2="6.1114" y2="66.1089" gradientTransform="matrix(1 0 0 -1 0 93.33)">
		<stop  offset="0" style="stop-color:#EA1EF6"/>
		<stop  offset="0.48" style="stop-color:#DF1CC0"/>
		<stop  offset="1" style="stop-color:#D41989"/>
	</linearGradient>
	<path class="st2" d="M6.9,23.5c-0.1,0.5-0.2,1.1-0.3,1.7c0,0.3-0.1,0.6-0.1,0.8c-0.1,0.6-0.1,1.1-0.1,1.7
		c0,11.5,9.4,20.9,20.9,20.9c2,0,3.9-0.3,5.8-0.8c0.9-0.3,1.8-0.6,2.7-1c1.5-0.6,2.9-1.4,4.2-2.4c0.5-0.4,1-0.8,1.5-1.2l12.7-12.7
		l0,0l0.6-0.6c-1.3-1.9-2.8-4.2-4.3-6.5c-3.4-5.2-6.7-10.1-8.2-11.4l-0.2-0.1l-0.1-0.1L42,11.6l0,0c-0.2-0.2-0.4-0.4-0.6-0.5
		C32.5,3.7,19.4,4.5,11.5,13c-1.1,1.6-1.9,3.4-2.6,5.2C8,19.8,7.3,21.6,6.9,23.5z"/>
	<path class="st1" d="M113.7,64.3c0.7,0.3,1.3,0.5,2,0.8C115.1,64.8,114.4,64.6,113.7,64.3z"/>
	<path class="st0" d="M126.4,71.8L126.4,71.8c0.4,0.3,0.8,0.7,1.2,1.1l0,0C127.2,72.5,126.8,72.1,126.4,71.8z"/>
	<path class="st0" d="M129.3,74.4l-0.4-0.3l0,0L129.3,74.4z"/>
	<path class="st0" d="M126.3,71.8L126.3,71.8l-0.1-0.1l0,0L126.3,71.8z"/>
	<path class="st0" d="M123.3,69.5c1,0.7,1.9,1.4,2.9,2.2l0,0C125.3,70.9,124.3,70.2,123.3,69.5z"/>
	<path class="st0" d="M128.8,74L128.8,74c-0.4-0.3-0.8-0.8-1.3-1.2l0,0C128,73.2,128.4,73.6,128.8,74z"/>
	<path class="st1" d="M128.9,74.1L128.9,74.1L128.9,74.1L128.9,74.1z"/>
	<polygon class="st1" points="127.6,72.8 127.6,72.8 127.6,72.8 127.6,72.8 	"/>
	<path class="st1" d="M126.4,71.8L126.4,71.8L126.4,71.8L126.4,71.8z"/>
	<polygon class="st1" points="126.2,71.7 126.2,71.7 126.2,71.7 126.2,71.7 	"/>
	
		<linearGradient id="SVGID_2_" gradientUnits="userSpaceOnUse" x1="149.6103" y1="55.872" x2="67.3203" y2="55.702" gradientTransform="matrix(1 0 0 -1 0 93.33)">
		<stop  offset="0" style="stop-color:#FF8402"/>
		<stop  offset="1" style="stop-color:#EB293E"/>
	</linearGradient>
	<path class="st3" d="M102.4,0.1c-1.6,0-3.2,0.1-4.8,0.3C95,1,92.4,1.8,89.9,2.8l0,0c-0.4,0.2-0.8,0.3-1.2,0.5l-0.5,0.2l-0.6,0.3
		L87,4.2l-0.5,0.2l-0.7,0.4L85.4,5l-0.7,0.4l-0.4,0.3l-0.7,0.4l-0.4,0.3l-0.6,0.4l-1.1,0.7l0,0l-1.1,0.8h-0.1
		c-0.3,0.3-0.7,0.5-1,0.8l0,0l-0.1,0.1l0,0L79,9.4c-0.2,0.2-0.5,0.4-0.7,0.6l0,0l-0.1,0.1l-0.1,0.1l-0.9,0.8L77,11.1l-0.8,0.7
		l-0.3,0.3c-0.2,0.2-0.5,0.4-0.7,0.7s-0.3,0.3-0.4,0.4l-0.6,0.6l-0.5,0.6l-0.4,0.5L72.5,16c-0.9,1.1-1.7,2.3-2.5,3.5
		c-0.3,0.4-0.5,0.8-0.8,1.2s-0.7,1.1-1,1.6c-1.2,2.2-2.3,4.5-3.1,6.9c-0.6,1.8-1.2,3.6-1.6,5.5c-0.3,1.2-0.5,2.5-0.7,3.8
		c-0.1,0.9-0.2,1.7-0.3,2.6c0.7-2.1,2.7-3.4,4.9-3.4h9.4c2.9,0,5.2,2.3,5.2,5.2v18.2h18.2c0.7,0,1.5,0.2,2.1,0.5l0.7,0.1h0.2
		l0.9,0.1l0.4,0.1l0.6,0.1l1.1,0.2c0.7,0.1,1.4,0.3,2.1,0.5c1.1,0.3,2.1,0.6,3.2,0.9c0.7,0.2,1.4,0.5,2.1,0.7s1.3,0.5,2,0.8l1,0.5
		c0.6,0.3,1.1,0.5,1.7,0.8l0.9,0.5c0.6,0.3,1.2,0.7,1.8,1c0.3,0.2,0.6,0.4,0.9,0.6c1.5,1,2.9,2,4.3,3.1l0.1,0.1
		c0.4,0.3,0.8,0.7,1.2,1.1s0.9,0.8,1.3,1.3l0.4,0.3l-0.4-0.3c0.2,0.2,0.5,0.6,0.8,1l2.6-2.6l0,0c16.6-16.6,16.5-43.5-0.1-60
		C124.3,4.5,113.5,0,102.4,0.1L102.4,0.1z"/>
	
		<linearGradient id="SVGID_3_" gradientUnits="userSpaceOnUse" x1="149.6806" y1="26.5257" x2="67.3806" y2="26.3557" gradientTransform="matrix(1 0 0 -1 0 93.33)">
		<stop  offset="0" style="stop-color:#E3D0D3"/>
		<stop  offset="0.27" style="stop-color:#DABABE"/>
		<stop  offset="1" style="stop-color:#C38389"/>
	</linearGradient>
	<path class="st4" d="M119.9,67.3l-0.7-0.4l-0.9-0.5C118.9,66.7,119.4,67,119.9,67.3z"/>
	
		<linearGradient id="SVGID_4_" gradientUnits="userSpaceOnUse" x1="149.6805" y1="25.0707" x2="67.3805" y2="24.9007" gradientTransform="matrix(1 0 0 -1 0 93.33)">
		<stop  offset="0" style="stop-color:#E3D0D3"/>
		<stop  offset="0.27" style="stop-color:#DABABE"/>
		<stop  offset="1" style="stop-color:#C38389"/>
	</linearGradient>
	<path class="st5" d="M123.1,69.3c-0.4-0.3-0.8-0.5-1.1-0.8s-0.6-0.4-0.9-0.6s-0.7-0.4-1-0.6C121,67.9,122.1,68.6,123.1,69.3z"/>
	
		<linearGradient id="SVGID_5_" gradientUnits="userSpaceOnUse" x1="149.6905" y1="21.0595" x2="67.3905" y2="20.8895" gradientTransform="matrix(1 0 0 -1 0 93.33)">
		<stop  offset="0" style="stop-color:#E3D0D3"/>
		<stop  offset="0.27" style="stop-color:#DABABE"/>
		<stop  offset="1" style="stop-color:#C38389"/>
	</linearGradient>
	<path class="st6" d="M126.4,71.8c0.4,0.3,0.8,0.7,1.2,1C127.2,72.5,126.8,72.1,126.4,71.8z"/>
	
		<linearGradient id="SVGID_6_" gradientUnits="userSpaceOnUse" x1="149.6805" y1="22.8793" x2="67.3905" y2="22.7093" gradientTransform="matrix(1 0 0 -1 0 93.33)">
		<stop  offset="0" style="stop-color:#E3D0D3"/>
		<stop  offset="0.27" style="stop-color:#DABABE"/>
		<stop  offset="1" style="stop-color:#C38389"/>
	</linearGradient>
	<path class="st7" d="M123.1,69.3l0.2,0.2c1,0.7,1.9,1.4,2.9,2.2C125.2,70.8,124.2,70.1,123.1,69.3z"/>
	<path class="st1" d="M123.1,69.3L123.1,69.3c1.1,0.7,2.1,1.5,3.1,2.3l0,0c-1.3-1.1-2.7-2.2-4.2-3.1C122.4,68.8,122.8,69,123.1,69.3
		L123.1,69.3z"/>
	
		<linearGradient id="SVGID_7_" gradientUnits="userSpaceOnUse" x1="149.6805" y1="23.2705" x2="67.3905" y2="23.1005" gradientTransform="matrix(1 0 0 -1 0 93.33)">
		<stop  offset="0" style="stop-color:#E3D0D3"/>
		<stop  offset="0.27" style="stop-color:#DABABE"/>
		<stop  offset="1" style="stop-color:#C38389"/>
	</linearGradient>
	<path class="st8" d="M123.1,69.3L123.1,69.3c1.1,0.7,2.1,1.5,3.1,2.3l0,0c-1.3-1.1-2.7-2.2-4.2-3.1C122.4,68.8,122.8,69,123.1,69.3
		L123.1,69.3z"/>
	<path class="st1" d="M121,67.9c0.3,0.2,0.6,0.4,0.9,0.6C121.7,68.3,121.3,68.1,121,67.9z"/>
	
		<linearGradient id="SVGID_8_" gradientUnits="userSpaceOnUse" x1="149.6805" y1="25.1309" x2="67.3805" y2="24.9609" gradientTransform="matrix(1 0 0 -1 0 93.33)">
		<stop  offset="0" style="stop-color:#E3D0D3"/>
		<stop  offset="0.27" style="stop-color:#DABABE"/>
		<stop  offset="1" style="stop-color:#C38389"/>
	</linearGradient>
	<path class="st9" d="M121,67.9c0.3,0.2,0.6,0.4,0.9,0.6C121.7,68.3,121.3,68.1,121,67.9z"/>
	<path class="st1" d="M120,67.3c0.3,0.2,0.7,0.4,1,0.6c-0.6-0.4-1.2-0.7-1.8-1L120,67.3L120,67.3z"/>
	
		<linearGradient id="SVGID_9_" gradientUnits="userSpaceOnUse" x1="149.6806" y1="25.9337" x2="67.3806" y2="25.7637" gradientTransform="matrix(1 0 0 -1 0 93.33)">
		<stop  offset="0" style="stop-color:#E3D0D3"/>
		<stop  offset="0.27" style="stop-color:#DABABE"/>
		<stop  offset="1" style="stop-color:#C38389"/>
	</linearGradient>
	<path class="st10" d="M120,67.3c0.3,0.2,0.7,0.4,1,0.6c-0.6-0.4-1.2-0.7-1.8-1L120,67.3L120,67.3z"/>
	<path class="st1" d="M127.6,72.8L127.6,72.8c-0.4-0.4-0.8-0.7-1.2-1.1l0,0C126.8,72.1,127.2,72.5,127.6,72.8z"/>
	
		<linearGradient id="SVGID_10_" gradientUnits="userSpaceOnUse" x1="149.6906" y1="21.0446" x2="67.3905" y2="20.8746" gradientTransform="matrix(1 0 0 -1 0 93.33)">
		<stop  offset="0" style="stop-color:#E3D0D3"/>
		<stop  offset="0.27" style="stop-color:#DABABE"/>
		<stop  offset="1" style="stop-color:#C38389"/>
	</linearGradient>
	<path class="st11" d="M127.6,72.8L127.6,72.8c-0.4-0.4-0.8-0.7-1.2-1.1l0,0C126.8,72.1,127.2,72.5,127.6,72.8z"/>
	<path class="st1" d="M119.3,66.9l-0.9-0.5l0,0L119.3,66.9z"/>
	
		<linearGradient id="SVGID_11_" gradientUnits="userSpaceOnUse" x1="149.6705" y1="26.7114" x2="67.3805" y2="26.5414" gradientTransform="matrix(1 0 0 -1 0 93.33)">
		<stop  offset="0" style="stop-color:#E3D0D3"/>
		<stop  offset="0.27" style="stop-color:#DABABE"/>
		<stop  offset="1" style="stop-color:#C38389"/>
	</linearGradient>
	<path class="st12" d="M119.3,66.9l-0.9-0.5l0,0L119.3,66.9z"/>
	
		<linearGradient id="SVGID_12_" gradientUnits="userSpaceOnUse" x1="48.9712" y1="78.53" x2="48.2111" y2="16.5" gradientTransform="matrix(1 0 0 -1 0 93.33)">
		<stop  offset="0" style="stop-color:#FF8402"/>
		<stop  offset="0.38" style="stop-color:#F7601A"/>
		<stop  offset="1" style="stop-color:#EB293E"/>
	</linearGradient>
	<path class="st13" d="M0.8,40.7L0.8,40.7c1,8.5,4.5,16.6,9.9,23.2c0.8,1,1.7,1.9,2.6,2.8s1.8,1.8,2.8,2.6c0.5,0.4,1,0.8,1.5,1.2
		c1,0.8,2,1.5,3.1,2.2c2.1,1.4,4.4,2.6,6.8,3.6c4.2,1.8,8.7,2.9,13.2,3.3c-1.2-1-1.9-2.5-1.9-4v-9.4c0-2.9,2.3-5.2,5.2-5.2
		c0,0,0,0,0,0h18.2V42.9c0-0.6,0.1-1.2,0.3-1.8c0.1-0.9,0.1-1.8,0.3-2.6c0.2-1.3,0.4-2.5,0.7-3.8c0.4-1.9,0.9-3.7,1.6-5.5
		c0.9-2.4,1.9-4.7,3.1-6.9c0.3-0.6,0.6-1.1,1-1.6c0.3-0.4,0.5-0.8,0.8-1.2c0.8-1.2,1.6-2.4,2.5-3.5l0.9-1.1l0.4-0.5l0.5-0.6l0.6-0.6
		c0.1-0.1,0.3-0.3,0.4-0.4s0.4-0.5,0.7-0.7l0.3-0.3l0.8-0.7l0.2-0.2l0,0c0.3-0.3,0.6-0.5,0.8-0.8l0.1-0.1l0.1-0.1
		c0.2-0.2,0.5-0.4,0.7-0.6l0.2-0.2l0,0l0.1-0.1l0,0l0,0c0.3-0.3,0.6-0.5,1-0.8h0.1l1.1-0.8l0,0l1.1-0.7l0.2-0.1l0.5-0.3l0.5-0.4
		l0.7-0.4l0.4-0.3l0.4-0.2L85.5,5l0.4-0.2l0.7-0.4L87,4.2l0.7-0.3l0.6-0.3l0.5-0.2c0.4-0.2,0.8-0.3,1.2-0.5l0,0l0.2-0.1l-0.2,0.1
		c2.5-1,5-1.8,7.6-2.5l0,0l0,0h-0.2c-9.4,1.1-18.1,5.3-24.8,12l0,0L54.9,29.9l0,0l-0.6,0.6l0,0L41.6,43.3c-0.5,0.4-1,0.8-1.5,1.2
		c-1.3,0.9-2.7,1.7-4.2,2.4c-0.9,0.4-1.8,0.7-2.7,1c-1.9,0.5-3.8,0.8-5.8,0.8c-11.5,0-20.9-9.4-20.9-20.9c0-0.6,0-1.1,0.1-1.7
		c0-0.3,0-0.6,0.1-0.8c0.1-0.6,0.2-1.1,0.3-1.7c0.4-1.9,1-3.6,1.9-5.3c0.7-1.8,1.6-3.5,2.7-5.2c-0.6,0.6-1.1,1.2-1.6,1.9l-0.5,0.6
		c-5.2,6.3-8.4,14-9.2,22.1c0.2,1.1,0.4,2.3,0.6,2.8C0.9,40.5,0.9,40.6,0.8,40.7z M42.4,43.7L42.4,43.7z"/>
	
		<linearGradient id="SVGID_13_" gradientUnits="userSpaceOnUse" x1="149.5605" y1="84.2216" x2="76.1605" y2="84.0716" gradientTransform="matrix(1 0 0 -1 0 93.33)">
		<stop  offset="0" style="stop-color:#E3D0D3"/>
		<stop  offset="0.27" style="stop-color:#DABABE"/>
		<stop  offset="1" style="stop-color:#C38389"/>
	</linearGradient>
	<polygon class="st14" points="79.2,9.2 79.2,9.2 79.2,9.2 	"/>
	
		<linearGradient id="SVGID_14_" gradientUnits="userSpaceOnUse" x1="79.1623" y1="78.16" x2="78.4123" y2="16.91" gradientTransform="matrix(1 0 0 -1 0 93.33)">
		<stop  offset="0" style="stop-color:#E3D0D3"/>
		<stop  offset="0.27" style="stop-color:#DABABE"/>
		<stop  offset="1" style="stop-color:#C38389"/>
	</linearGradient>
	<polygon class="st15" points="79.2,9.2 79.2,9.2 79.2,9.2 	"/>
	
		<linearGradient id="SVGID_15_" gradientUnits="userSpaceOnUse" x1="149.5605" y1="83.4048" x2="67.2605" y2="83.2348" gradientTransform="matrix(1 0 0 -1 0 93.33)">
		<stop  offset="0" style="stop-color:#E3D0D3"/>
		<stop  offset="0.27" style="stop-color:#DABABE"/>
		<stop  offset="1" style="stop-color:#C38389"/>
	</linearGradient>
	<path class="st16" d="M78.3,10L78.3,10L78.3,10L78.3,10z"/>
	
		<linearGradient id="SVGID_16_" gradientUnits="userSpaceOnUse" x1="78.1775" y1="78.17" x2="77.4174" y2="16.14" gradientTransform="matrix(1 0 0 -1 0 93.33)">
		<stop  offset="0" style="stop-color:#E3D0D3"/>
		<stop  offset="0.27" style="stop-color:#DABABE"/>
		<stop  offset="1" style="stop-color:#C38389"/>
	</linearGradient>
	<path class="st17" d="M78.3,10L78.3,10L78.3,10L78.3,10z"/>
	
		<linearGradient id="SVGID_17_" gradientUnits="userSpaceOnUse" x1="149.5605" y1="83.729" x2="67.2606" y2="83.559" gradientTransform="matrix(1 0 0 -1 0 93.33)">
		<stop  offset="0" style="stop-color:#E3D0D3"/>
		<stop  offset="0.27" style="stop-color:#DABABE"/>
		<stop  offset="1" style="stop-color:#C38389"/>
	</linearGradient>
	<path class="st18" d="M78.3,10c0.2-0.2,0.5-0.4,0.7-0.6C78.8,9.6,78.5,9.8,78.3,10z"/>
	
		<linearGradient id="SVGID_18_" gradientUnits="userSpaceOnUse" x1="0" y1="12.97" x2="81.99" y2="12.97" gradientTransform="matrix(1 0 0 -1 0 93.33)">
		<stop  offset="0" style="stop-color:#FF8402"/>
		<stop  offset="0.38" style="stop-color:#F7601A"/>
		<stop  offset="1" style="stop-color:#EB293E"/>
	</linearGradient>
	<path class="st19" d="M73.9,122.3c1.2-1.7,2.3-3.6,3.3-5.4c1.4-2.8,2.5-5.8,3.3-8.8c0.1-0.5,0.3-1,0.4-1.5c0.2-1,0.4-2.1,0.6-3.1
		c0.1-0.8,0.2-1.5,0.3-2.3c-0.8,1.9-2.7,3.2-4.8,3.2h-9.5c-2.9,0-5.2-2.3-5.2-5.2V80.9H44c-1.2,0-2.4-0.4-3.3-1.2
		c-4.6-0.4-9-1.5-13.2-3.3c-2.4-1-4.6-2.2-6.8-3.6c-1.1-0.7-2.1-1.4-3.1-2.2c-0.5-0.4-1-0.8-1.5-1.2c-1-0.8-1.9-1.7-2.8-2.6
		s-1.8-1.9-2.6-2.8c-5.5-6.6-8.9-14.6-9.9-23.2l0,0c0-0.1,0-0.2,0-0.3c-0.1-0.6-0.4-1.7-0.6-2.8C0.1,39,0,40.3,0,41.7
		c0,0.2,0,0.3,0,0.5c0,11.7,4.9,23,13.4,31l43.8,43.8l0,0c4.1,3.9,9.6,6.2,15.3,6.2h0.7C73.4,122.8,73.7,122.5,73.9,122.3
		L73.9,122.3z"/>
	
		<linearGradient id="SVGID_19_" gradientUnits="userSpaceOnUse" x1="89.8066" y1="-25.4874" x2="124.4466" y2="19.2426" gradientTransform="matrix(1 0 0 -1 0 93.33)">
		<stop  offset="0" style="stop-color:#E3D0D3"/>
		<stop  offset="0.27" style="stop-color:#DABABE"/>
		<stop  offset="1" style="stop-color:#C38389"/>
	</linearGradient>
	<path class="st20" d="M126.2,71.7l0.1,0.1L126.2,71.7z"/>
	
		<linearGradient id="SVGID_20_" gradientUnits="userSpaceOnUse" x1="80.15" y1="-18.0078" x2="114.79" y2="26.7222" gradientTransform="matrix(1 0 0 -1 0 93.33)">
		<stop  offset="0" style="stop-color:#FF8402"/>
		<stop  offset="0.38" style="stop-color:#F7601A"/>
		<stop  offset="1" style="stop-color:#EB293E"/>
	</linearGradient>
	<path class="st21" d="M127.6,72.8c-0.4-0.4-0.8-0.7-1.2-1.1l-0.2-0.1c-0.9-0.8-1.9-1.5-2.9-2.2l-0.2-0.2l0,0c-1-0.7-2-1.4-3.1-2
		H120c-0.5-0.3-1-0.6-1.6-0.9s-1.1-0.6-1.7-0.8l-1-0.5c-0.7-0.3-1.3-0.6-2-0.8s-1.4-0.5-2.1-0.7c-1-0.3-2.1-0.7-3.2-0.9
		c-0.7-0.2-1.4-0.3-2.1-0.5l-1.1-0.2l-0.6-0.1l-0.4-0.1l-0.9-0.1h-0.2l-0.7-0.1c1.8,0.9,3,2.7,3,4.7v9.4c0,2.9-2.3,5.2-5.2,5.2H82.1
		v18.2c0,0.7-0.1,1.4-0.4,2c-0.1,0.8-0.2,1.5-0.3,2.3c-0.2,1-0.3,2.1-0.6,3.1c-0.1,0.5-0.2,1-0.4,1.5c-0.8,3-1.9,6-3.3,8.8
		c-1,1.9-2,3.7-3.3,5.4l0,0c-0.2,0.2-0.4,0.5-0.7,0.8c5.8-0.2,11.3-2.6,15.3-6.7l0,0l41.3-41.3c-0.3-0.4-0.6-0.8-0.8-1
		C128.5,73.7,128,73.3,127.6,72.8z"/>
	
		<linearGradient id="SVGID_21_" gradientUnits="userSpaceOnUse" x1="81.5855" y1="-19.1143" x2="116.2155" y2="25.6157" gradientTransform="matrix(1 0 0 -1 0 93.33)">
		<stop  offset="0" style="stop-color:#E3D0D3"/>
		<stop  offset="0.27" style="stop-color:#DABABE"/>
		<stop  offset="1" style="stop-color:#C38389"/>
	</linearGradient>
	<path class="st22" d="M116.7,65.6c0.6,0.3,1.1,0.5,1.7,0.8C117.8,66.1,117.3,65.9,116.7,65.6z"/>
	
		<linearGradient id="SVGID_22_" gradientUnits="userSpaceOnUse" x1="91.8529" y1="-27.0723" x2="126.4829" y2="17.6577" gradientTransform="matrix(1 0 0 -1 0 93.33)">
		<stop  offset="0" style="stop-color:#E3D0D3"/>
		<stop  offset="0.27" style="stop-color:#DABABE"/>
		<stop  offset="1" style="stop-color:#C38389"/>
	</linearGradient>
	<path class="st23" d="M127.6,72.8c0.4,0.4,0.8,0.8,1.3,1.2C128.4,73.6,128,73.2,127.6,72.8z"/>
	<path class="st1" d="M123.1,69.3L123.1,69.3L123.1,69.3L123.1,69.3z"/>
	
		<linearGradient id="SVGID_23_" gradientUnits="userSpaceOnUse" x1="123.11" y1="24.03" x2="123.11" y2="24.03" gradientTransform="matrix(1 0 0 -1 0 93.33)">
		<stop  offset="0" style="stop-color:#E3D0D3"/>
		<stop  offset="0.27" style="stop-color:#DABABE"/>
		<stop  offset="1" style="stop-color:#C38389"/>
	</linearGradient>
	<path class="st24" d="M123.1,69.3L123.1,69.3L123.1,69.3L123.1,69.3z"/>
	<path class="st1" d="M120,67.3L120,67.3L120,67.3z"/>
	
		<linearGradient id="SVGID_24_" gradientUnits="userSpaceOnUse" x1="83.7305" y1="-20.7859" x2="118.3705" y2="23.9541" gradientTransform="matrix(1 0 0 -1 0 93.33)">
		<stop  offset="0" style="stop-color:#E3D0D3"/>
		<stop  offset="0.27" style="stop-color:#DABABE"/>
		<stop  offset="1" style="stop-color:#C38389"/>
	</linearGradient>
	<path class="st25" d="M120,67.3L120,67.3L120,67.3z"/>
	
		<linearGradient id="SVGID_25_" gradientUnits="userSpaceOnUse" x1="38.86" y1="22.29" x2="105.5" y2="22.29" gradientTransform="matrix(1 0 0 -1 0 93.33)">
		<stop  offset="0" style="stop-color:#FAFAFC"/>
		<stop  offset="0.5" style="stop-color:#E9EBF1"/>
		<stop  offset="1" style="stop-color:#D8DAE5"/>
	</linearGradient>
	<path class="st26" d="M100.3,61.1H82.1V42.9c0-2.9-2.3-5.2-5.2-5.2h-9.4c-2.9,0-5.2,2.3-5.2,5.2v18.2H44c-2.9,0-5.2,2.3-5.2,5.2
		v9.4c0,2.9,2.3,5.2,5.2,5.2h18.2v18.2c0,2.9,2.3,5.2,5.2,5.2h9.4c2.9,0,5.2-2.3,5.2-5.2V80.9h18.2c2.9,0,5.2-2.3,5.2-5.2v-9.4
		C105.5,63.4,103.2,61.1,100.3,61.1C100.3,61.1,100.3,61.1,100.3,61.1z"/>
</g>
</svg>
